<mxfile host="app.diagrams.net" agent="Mozilla/5.0 (X11; Ubuntu; Linux x86_64; rv:136.0) Gecko/20100101 Firefox/136.0" version="27.2.0">
  <diagram name="Page-1" id="sxVnqw21GZPcm04nLz4V">
    <mxGraphModel dx="4224" dy="832" grid="1" gridSize="10" guides="1" tooltips="1" connect="1" arrows="1" fold="1" page="1" pageScale="1" pageWidth="850" pageHeight="1100" math="0" shadow="0">
      <root>
        <mxCell id="0" />
        <mxCell id="1" parent="0" />
        <mxCell id="rMzshPHU6KnUzgn7r8EB-4" value="" style="edgeStyle=orthogonalEdgeStyle;rounded=0;orthogonalLoop=1;jettySize=auto;html=1;exitX=0.5;exitY=1;exitDx=0;exitDy=0;" edge="1" parent="1" source="rMzshPHU6KnUzgn7r8EB-1" target="rMzshPHU6KnUzgn7r8EB-3">
          <mxGeometry relative="1" as="geometry" />
        </mxCell>
        <mxCell id="rMzshPHU6KnUzgn7r8EB-6" value="" style="edgeStyle=orthogonalEdgeStyle;rounded=0;orthogonalLoop=1;jettySize=auto;html=1;exitX=0.5;exitY=1;exitDx=0;exitDy=0;" edge="1" parent="1" source="rMzshPHU6KnUzgn7r8EB-1" target="rMzshPHU6KnUzgn7r8EB-5">
          <mxGeometry relative="1" as="geometry" />
        </mxCell>
        <mxCell id="rMzshPHU6KnUzgn7r8EB-8" value="" style="edgeStyle=orthogonalEdgeStyle;rounded=0;orthogonalLoop=1;jettySize=auto;html=1;exitX=0.5;exitY=1;exitDx=0;exitDy=0;" edge="1" parent="1" source="rMzshPHU6KnUzgn7r8EB-1" target="rMzshPHU6KnUzgn7r8EB-7">
          <mxGeometry relative="1" as="geometry" />
        </mxCell>
        <mxCell id="rMzshPHU6KnUzgn7r8EB-1" value="&lt;div&gt;OpenTelemetry&lt;/div&gt;&lt;div&gt;Collector&lt;/div&gt;&lt;div&gt;Forward&lt;/div&gt;" style="shape=process;whiteSpace=wrap;html=1;backgroundOutline=1;fillColor=#b0e3e6;strokeColor=#0e8088;" vertex="1" parent="1">
          <mxGeometry x="-480" y="220" width="380" height="100" as="geometry" />
        </mxCell>
        <mxCell id="rMzshPHU6KnUzgn7r8EB-28" style="edgeStyle=orthogonalEdgeStyle;rounded=0;orthogonalLoop=1;jettySize=auto;html=1;" edge="1" parent="1" source="rMzshPHU6KnUzgn7r8EB-3" target="rMzshPHU6KnUzgn7r8EB-22">
          <mxGeometry relative="1" as="geometry" />
        </mxCell>
        <mxCell id="rMzshPHU6KnUzgn7r8EB-34" style="edgeStyle=orthogonalEdgeStyle;rounded=0;orthogonalLoop=1;jettySize=auto;html=1;" edge="1" parent="1" source="rMzshPHU6KnUzgn7r8EB-3" target="rMzshPHU6KnUzgn7r8EB-21">
          <mxGeometry relative="1" as="geometry" />
        </mxCell>
        <mxCell id="rMzshPHU6KnUzgn7r8EB-3" value="&lt;div&gt;OpenTelemetry&lt;/div&gt;&lt;div&gt;Collector&lt;/div&gt;&lt;div&gt;Elasticsearch&lt;/div&gt;" style="shape=process;whiteSpace=wrap;html=1;backgroundOutline=1;fillColor=#b0e3e6;strokeColor=#0e8088;" vertex="1" parent="1">
          <mxGeometry x="230" y="415" width="140" height="120" as="geometry" />
        </mxCell>
        <mxCell id="rMzshPHU6KnUzgn7r8EB-10" value="" style="edgeStyle=orthogonalEdgeStyle;rounded=0;orthogonalLoop=1;jettySize=auto;html=1;" edge="1" parent="1" source="rMzshPHU6KnUzgn7r8EB-5" target="rMzshPHU6KnUzgn7r8EB-9">
          <mxGeometry relative="1" as="geometry" />
        </mxCell>
        <mxCell id="rMzshPHU6KnUzgn7r8EB-12" value="" style="edgeStyle=orthogonalEdgeStyle;rounded=0;orthogonalLoop=1;jettySize=auto;html=1;" edge="1" parent="1" source="rMzshPHU6KnUzgn7r8EB-5" target="rMzshPHU6KnUzgn7r8EB-11">
          <mxGeometry relative="1" as="geometry" />
        </mxCell>
        <mxCell id="rMzshPHU6KnUzgn7r8EB-13" value="" style="edgeStyle=orthogonalEdgeStyle;rounded=0;orthogonalLoop=1;jettySize=auto;html=1;" edge="1" parent="1" source="rMzshPHU6KnUzgn7r8EB-5" target="rMzshPHU6KnUzgn7r8EB-11">
          <mxGeometry relative="1" as="geometry" />
        </mxCell>
        <mxCell id="rMzshPHU6KnUzgn7r8EB-16" style="edgeStyle=orthogonalEdgeStyle;rounded=0;orthogonalLoop=1;jettySize=auto;html=1;exitX=0.5;exitY=1;exitDx=0;exitDy=0;entryX=1;entryY=0.5;entryDx=0;entryDy=0;entryPerimeter=0;" edge="1" parent="1" source="rMzshPHU6KnUzgn7r8EB-5" target="rMzshPHU6KnUzgn7r8EB-37">
          <mxGeometry relative="1" as="geometry">
            <mxPoint x="-489.99999999999955" y="665" as="targetPoint" />
          </mxGeometry>
        </mxCell>
        <mxCell id="rMzshPHU6KnUzgn7r8EB-39" style="edgeStyle=orthogonalEdgeStyle;rounded=0;orthogonalLoop=1;jettySize=auto;html=1;entryX=0;entryY=0;entryDx=0;entryDy=27.5;entryPerimeter=0;exitX=1;exitY=0.25;exitDx=0;exitDy=0;" edge="1" parent="1" source="rMzshPHU6KnUzgn7r8EB-5" target="rMzshPHU6KnUzgn7r8EB-22">
          <mxGeometry relative="1" as="geometry">
            <Array as="points">
              <mxPoint x="-30" y="445" />
              <mxPoint x="-30" y="653" />
              <mxPoint x="90" y="653" />
            </Array>
          </mxGeometry>
        </mxCell>
        <mxCell id="rMzshPHU6KnUzgn7r8EB-67" style="edgeStyle=orthogonalEdgeStyle;rounded=0;orthogonalLoop=1;jettySize=auto;html=1;" edge="1" parent="1" source="rMzshPHU6KnUzgn7r8EB-5" target="rMzshPHU6KnUzgn7r8EB-66">
          <mxGeometry relative="1" as="geometry" />
        </mxCell>
        <mxCell id="rMzshPHU6KnUzgn7r8EB-5" value="Logstash" style="shape=process;whiteSpace=wrap;html=1;backgroundOutline=1;fillColor=#b0e3e6;strokeColor=#0e8088;" vertex="1" parent="1">
          <mxGeometry x="-360" y="415" width="140" height="120" as="geometry" />
        </mxCell>
        <mxCell id="rMzshPHU6KnUzgn7r8EB-27" style="edgeStyle=orthogonalEdgeStyle;rounded=0;orthogonalLoop=1;jettySize=auto;html=1;" edge="1" parent="1" source="rMzshPHU6KnUzgn7r8EB-7" target="rMzshPHU6KnUzgn7r8EB-26">
          <mxGeometry relative="1" as="geometry" />
        </mxCell>
        <mxCell id="rMzshPHU6KnUzgn7r8EB-43" style="edgeStyle=orthogonalEdgeStyle;rounded=0;orthogonalLoop=1;jettySize=auto;html=1;" edge="1" parent="1" source="rMzshPHU6KnUzgn7r8EB-7" target="rMzshPHU6KnUzgn7r8EB-18">
          <mxGeometry relative="1" as="geometry" />
        </mxCell>
        <mxCell id="rMzshPHU6KnUzgn7r8EB-44" style="edgeStyle=orthogonalEdgeStyle;rounded=0;orthogonalLoop=1;jettySize=auto;html=1;" edge="1" parent="1" source="rMzshPHU6KnUzgn7r8EB-7" target="rMzshPHU6KnUzgn7r8EB-19">
          <mxGeometry relative="1" as="geometry" />
        </mxCell>
        <mxCell id="rMzshPHU6KnUzgn7r8EB-7" value="&lt;div&gt;OpenTelemetry&lt;/div&gt;&lt;div&gt;Collector&lt;/div&gt;&lt;div&gt;Opensearch&lt;/div&gt;" style="shape=process;whiteSpace=wrap;html=1;backgroundOutline=1;fillColor=#b0e3e6;strokeColor=#0e8088;" vertex="1" parent="1">
          <mxGeometry x="-950" y="415" width="140" height="120" as="geometry" />
        </mxCell>
        <mxCell id="rMzshPHU6KnUzgn7r8EB-9" value="S3" style="whiteSpace=wrap;html=1;fillColor=#f5f5f5;fontColor=#333333;strokeColor=#666666;" vertex="1" parent="1">
          <mxGeometry x="-580" y="415" width="120" height="35" as="geometry" />
        </mxCell>
        <mxCell id="rMzshPHU6KnUzgn7r8EB-11" value="KAFKA" style="whiteSpace=wrap;html=1;fillColor=#f5f5f5;fontColor=#333333;strokeColor=#666666;" vertex="1" parent="1">
          <mxGeometry x="-580" y="457.5" width="120" height="35" as="geometry" />
        </mxCell>
        <mxCell id="rMzshPHU6KnUzgn7r8EB-33" style="edgeStyle=orthogonalEdgeStyle;rounded=0;orthogonalLoop=1;jettySize=auto;html=1;" edge="1" parent="1" source="rMzshPHU6KnUzgn7r8EB-17" target="rMzshPHU6KnUzgn7r8EB-32">
          <mxGeometry relative="1" as="geometry" />
        </mxCell>
        <mxCell id="rMzshPHU6KnUzgn7r8EB-17" value="Zipkin" style="shape=cylinder3;whiteSpace=wrap;html=1;boundedLbl=1;backgroundOutline=1;size=15;fillColor=#bac8d3;strokeColor=#23445d;" vertex="1" parent="1">
          <mxGeometry x="430" y="625" width="80" height="80" as="geometry" />
        </mxCell>
        <mxCell id="rMzshPHU6KnUzgn7r8EB-49" style="edgeStyle=orthogonalEdgeStyle;rounded=0;orthogonalLoop=1;jettySize=auto;html=1;" edge="1" parent="1" source="rMzshPHU6KnUzgn7r8EB-18" target="rMzshPHU6KnUzgn7r8EB-48">
          <mxGeometry relative="1" as="geometry" />
        </mxCell>
        <mxCell id="rMzshPHU6KnUzgn7r8EB-18" value="Jaeger" style="shape=cylinder3;whiteSpace=wrap;html=1;boundedLbl=1;backgroundOutline=1;size=15;fillColor=#bac8d3;strokeColor=#23445d;" vertex="1" parent="1">
          <mxGeometry x="-1330" y="615" width="80" height="80" as="geometry" />
        </mxCell>
        <mxCell id="rMzshPHU6KnUzgn7r8EB-46" style="edgeStyle=orthogonalEdgeStyle;rounded=0;orthogonalLoop=1;jettySize=auto;html=1;" edge="1" parent="1" source="rMzshPHU6KnUzgn7r8EB-19" target="rMzshPHU6KnUzgn7r8EB-24">
          <mxGeometry relative="1" as="geometry" />
        </mxCell>
        <mxCell id="rMzshPHU6KnUzgn7r8EB-19" value="Loki" style="shape=cylinder3;whiteSpace=wrap;html=1;boundedLbl=1;backgroundOutline=1;size=15;fillColor=#bac8d3;strokeColor=#23445d;" vertex="1" parent="1">
          <mxGeometry x="-1220" y="615" width="80" height="80" as="geometry" />
        </mxCell>
        <mxCell id="rMzshPHU6KnUzgn7r8EB-47" style="edgeStyle=orthogonalEdgeStyle;rounded=0;orthogonalLoop=1;jettySize=auto;html=1;" edge="1" parent="1" source="rMzshPHU6KnUzgn7r8EB-20" target="rMzshPHU6KnUzgn7r8EB-24">
          <mxGeometry relative="1" as="geometry" />
        </mxCell>
        <mxCell id="rMzshPHU6KnUzgn7r8EB-20" value="Tempo" style="shape=cylinder3;whiteSpace=wrap;html=1;boundedLbl=1;backgroundOutline=1;size=15;fillColor=#bac8d3;strokeColor=#23445d;" vertex="1" parent="1">
          <mxGeometry x="-1100" y="615" width="80" height="80" as="geometry" />
        </mxCell>
        <mxCell id="rMzshPHU6KnUzgn7r8EB-36" style="edgeStyle=orthogonalEdgeStyle;rounded=0;orthogonalLoop=1;jettySize=auto;html=1;" edge="1" parent="1" source="rMzshPHU6KnUzgn7r8EB-21" target="rMzshPHU6KnUzgn7r8EB-35">
          <mxGeometry relative="1" as="geometry" />
        </mxCell>
        <mxCell id="rMzshPHU6KnUzgn7r8EB-21" value="Prometheus" style="shape=cylinder3;whiteSpace=wrap;html=1;boundedLbl=1;backgroundOutline=1;size=15;fillColor=#bac8d3;strokeColor=#23445d;" vertex="1" parent="1">
          <mxGeometry x="260" y="625" width="80" height="80" as="geometry" />
        </mxCell>
        <mxCell id="rMzshPHU6KnUzgn7r8EB-30" style="edgeStyle=orthogonalEdgeStyle;rounded=0;orthogonalLoop=1;jettySize=auto;html=1;" edge="1" parent="1" source="rMzshPHU6KnUzgn7r8EB-22" target="rMzshPHU6KnUzgn7r8EB-23">
          <mxGeometry relative="1" as="geometry" />
        </mxCell>
        <mxCell id="rMzshPHU6KnUzgn7r8EB-22" value="Elasticsearch" style="shape=cylinder3;whiteSpace=wrap;html=1;boundedLbl=1;backgroundOutline=1;size=15;fillColor=#bac8d3;strokeColor=#23445d;" vertex="1" parent="1">
          <mxGeometry x="90" y="625" width="80" height="80" as="geometry" />
        </mxCell>
        <mxCell id="rMzshPHU6KnUzgn7r8EB-57" style="edgeStyle=orthogonalEdgeStyle;rounded=0;orthogonalLoop=1;jettySize=auto;html=1;entryX=1;entryY=0.5;entryDx=0;entryDy=0;exitX=0.5;exitY=1;exitDx=0;exitDy=0;" edge="1" parent="1" source="rMzshPHU6KnUzgn7r8EB-23" target="rMzshPHU6KnUzgn7r8EB-53">
          <mxGeometry relative="1" as="geometry" />
        </mxCell>
        <mxCell id="rMzshPHU6KnUzgn7r8EB-23" value="KIbana" style="whiteSpace=wrap;html=1;fillColor=#e1d5e7;strokeColor=#9673a6;" vertex="1" parent="1">
          <mxGeometry x="70" y="755" width="120" height="60" as="geometry" />
        </mxCell>
        <mxCell id="rMzshPHU6KnUzgn7r8EB-55" style="edgeStyle=orthogonalEdgeStyle;rounded=0;orthogonalLoop=1;jettySize=auto;html=1;entryX=0;entryY=0.5;entryDx=0;entryDy=0;exitX=0.5;exitY=1;exitDx=0;exitDy=0;" edge="1" parent="1" source="rMzshPHU6KnUzgn7r8EB-24" target="rMzshPHU6KnUzgn7r8EB-53">
          <mxGeometry relative="1" as="geometry" />
        </mxCell>
        <mxCell id="rMzshPHU6KnUzgn7r8EB-24" value="Grafana" style="whiteSpace=wrap;html=1;fillColor=#e1d5e7;strokeColor=#9673a6;" vertex="1" parent="1">
          <mxGeometry x="-1180" y="755" width="120" height="60" as="geometry" />
        </mxCell>
        <mxCell id="rMzshPHU6KnUzgn7r8EB-56" style="edgeStyle=orthogonalEdgeStyle;rounded=0;orthogonalLoop=1;jettySize=auto;html=1;entryX=0;entryY=0.5;entryDx=0;entryDy=0;exitX=0.5;exitY=1;exitDx=0;exitDy=0;" edge="1" parent="1" source="rMzshPHU6KnUzgn7r8EB-25" target="rMzshPHU6KnUzgn7r8EB-53">
          <mxGeometry relative="1" as="geometry" />
        </mxCell>
        <mxCell id="rMzshPHU6KnUzgn7r8EB-25" value="&lt;div&gt;Opensearch&lt;/div&gt;&lt;div&gt;Dashboards&lt;/div&gt;" style="whiteSpace=wrap;html=1;fillColor=#e1d5e7;strokeColor=#9673a6;" vertex="1" parent="1">
          <mxGeometry x="-751" y="755" width="120" height="60" as="geometry" />
        </mxCell>
        <mxCell id="rMzshPHU6KnUzgn7r8EB-38" style="edgeStyle=orthogonalEdgeStyle;rounded=0;orthogonalLoop=1;jettySize=auto;html=1;entryX=0;entryY=0.5;entryDx=0;entryDy=0;entryPerimeter=0;" edge="1" parent="1" source="rMzshPHU6KnUzgn7r8EB-26" target="rMzshPHU6KnUzgn7r8EB-37">
          <mxGeometry relative="1" as="geometry" />
        </mxCell>
        <mxCell id="rMzshPHU6KnUzgn7r8EB-26" value="&lt;div&gt;Data Prepper&lt;/div&gt;&lt;div&gt;Opensearch&lt;/div&gt;" style="shape=process;whiteSpace=wrap;html=1;backgroundOutline=1;fillColor=#fad9d5;strokeColor=#ae4132;" vertex="1" parent="1">
          <mxGeometry x="-950" y="615" width="140" height="80" as="geometry" />
        </mxCell>
        <mxCell id="rMzshPHU6KnUzgn7r8EB-31" style="edgeStyle=orthogonalEdgeStyle;rounded=0;orthogonalLoop=1;jettySize=auto;html=1;" edge="1" parent="1" source="rMzshPHU6KnUzgn7r8EB-3" target="rMzshPHU6KnUzgn7r8EB-17">
          <mxGeometry relative="1" as="geometry" />
        </mxCell>
        <mxCell id="rMzshPHU6KnUzgn7r8EB-59" style="edgeStyle=orthogonalEdgeStyle;rounded=0;orthogonalLoop=1;jettySize=auto;html=1;entryX=1;entryY=0.5;entryDx=0;entryDy=0;exitX=0.5;exitY=1;exitDx=0;exitDy=0;" edge="1" parent="1" source="rMzshPHU6KnUzgn7r8EB-32" target="rMzshPHU6KnUzgn7r8EB-53">
          <mxGeometry relative="1" as="geometry" />
        </mxCell>
        <mxCell id="rMzshPHU6KnUzgn7r8EB-32" value="Zipkin" style="whiteSpace=wrap;html=1;fillColor=#e1d5e7;strokeColor=#9673a6;" vertex="1" parent="1">
          <mxGeometry x="410" y="755" width="120" height="60" as="geometry" />
        </mxCell>
        <mxCell id="rMzshPHU6KnUzgn7r8EB-58" style="edgeStyle=orthogonalEdgeStyle;rounded=0;orthogonalLoop=1;jettySize=auto;html=1;entryX=1;entryY=0.5;entryDx=0;entryDy=0;exitX=0.5;exitY=1;exitDx=0;exitDy=0;" edge="1" parent="1" source="rMzshPHU6KnUzgn7r8EB-35" target="rMzshPHU6KnUzgn7r8EB-53">
          <mxGeometry relative="1" as="geometry" />
        </mxCell>
        <mxCell id="rMzshPHU6KnUzgn7r8EB-35" value="Prometheus" style="whiteSpace=wrap;html=1;fillColor=#e1d5e7;strokeColor=#9673a6;" vertex="1" parent="1">
          <mxGeometry x="240" y="755" width="120" height="60" as="geometry" />
        </mxCell>
        <mxCell id="rMzshPHU6KnUzgn7r8EB-42" style="edgeStyle=orthogonalEdgeStyle;rounded=0;orthogonalLoop=1;jettySize=auto;html=1;" edge="1" parent="1" source="rMzshPHU6KnUzgn7r8EB-37" target="rMzshPHU6KnUzgn7r8EB-25">
          <mxGeometry relative="1" as="geometry" />
        </mxCell>
        <mxCell id="rMzshPHU6KnUzgn7r8EB-37" value="Opensearch" style="shape=cylinder3;whiteSpace=wrap;html=1;boundedLbl=1;backgroundOutline=1;size=15;fillColor=#bac8d3;strokeColor=#23445d;" vertex="1" parent="1">
          <mxGeometry x="-731" y="615" width="80" height="80" as="geometry" />
        </mxCell>
        <mxCell id="rMzshPHU6KnUzgn7r8EB-40" value="SYSLOG" style="text;html=1;align=center;verticalAlign=middle;resizable=0;points=[];autosize=1;strokeColor=none;fillColor=none;" vertex="1" parent="1">
          <mxGeometry x="-220" y="420" width="70" height="30" as="geometry" />
        </mxCell>
        <mxCell id="rMzshPHU6KnUzgn7r8EB-41" value="HTTP" style="text;html=1;align=center;verticalAlign=middle;resizable=0;points=[];autosize=1;strokeColor=none;fillColor=none;" vertex="1" parent="1">
          <mxGeometry x="-218" y="475" width="50" height="30" as="geometry" />
        </mxCell>
        <mxCell id="rMzshPHU6KnUzgn7r8EB-45" style="edgeStyle=orthogonalEdgeStyle;rounded=0;orthogonalLoop=1;jettySize=auto;html=1;entryX=0.5;entryY=0;entryDx=0;entryDy=0;entryPerimeter=0;" edge="1" parent="1" source="rMzshPHU6KnUzgn7r8EB-7" target="rMzshPHU6KnUzgn7r8EB-20">
          <mxGeometry relative="1" as="geometry" />
        </mxCell>
        <mxCell id="rMzshPHU6KnUzgn7r8EB-54" style="edgeStyle=orthogonalEdgeStyle;rounded=0;orthogonalLoop=1;jettySize=auto;html=1;entryX=0;entryY=0.5;entryDx=0;entryDy=0;exitX=0.5;exitY=1;exitDx=0;exitDy=0;" edge="1" parent="1" source="rMzshPHU6KnUzgn7r8EB-48" target="rMzshPHU6KnUzgn7r8EB-53">
          <mxGeometry relative="1" as="geometry" />
        </mxCell>
        <mxCell id="rMzshPHU6KnUzgn7r8EB-48" value="Jaeger" style="whiteSpace=wrap;html=1;fillColor=#e1d5e7;strokeColor=#9673a6;" vertex="1" parent="1">
          <mxGeometry x="-1350" y="755" width="120" height="60" as="geometry" />
        </mxCell>
        <mxCell id="rMzshPHU6KnUzgn7r8EB-52" style="edgeStyle=orthogonalEdgeStyle;rounded=0;orthogonalLoop=1;jettySize=auto;html=1;" edge="1" parent="1" source="rMzshPHU6KnUzgn7r8EB-50" target="rMzshPHU6KnUzgn7r8EB-1">
          <mxGeometry relative="1" as="geometry" />
        </mxCell>
        <mxCell id="rMzshPHU6KnUzgn7r8EB-50" value="start" style="ellipse;whiteSpace=wrap;html=1;fillColor=#60a917;strokeColor=#2D7600;fontColor=#ffffff;" vertex="1" parent="1">
          <mxGeometry x="-310" y="140" width="40" height="40" as="geometry" />
        </mxCell>
        <mxCell id="rMzshPHU6KnUzgn7r8EB-53" value="end" style="ellipse;whiteSpace=wrap;html=1;fillColor=#647687;fontColor=#ffffff;strokeColor=#314354;" vertex="1" parent="1">
          <mxGeometry x="-310" y="840" width="40" height="40" as="geometry" />
        </mxCell>
        <mxCell id="rMzshPHU6KnUzgn7r8EB-60" style="edgeStyle=orthogonalEdgeStyle;rounded=0;orthogonalLoop=1;jettySize=auto;html=1;entryX=0;entryY=0;entryDx=0;entryDy=52.5;entryPerimeter=0;exitX=1;exitY=0.75;exitDx=0;exitDy=0;" edge="1" parent="1" source="rMzshPHU6KnUzgn7r8EB-5" target="rMzshPHU6KnUzgn7r8EB-22">
          <mxGeometry relative="1" as="geometry" />
        </mxCell>
        <mxCell id="rMzshPHU6KnUzgn7r8EB-61" style="edgeStyle=orthogonalEdgeStyle;rounded=0;orthogonalLoop=1;jettySize=auto;html=1;entryX=0.5;entryY=0;entryDx=0;entryDy=0;entryPerimeter=0;" edge="1" parent="1" source="rMzshPHU6KnUzgn7r8EB-7" target="rMzshPHU6KnUzgn7r8EB-37">
          <mxGeometry relative="1" as="geometry" />
        </mxCell>
        <mxCell id="rMzshPHU6KnUzgn7r8EB-62" value="" style="verticalLabelPosition=bottom;verticalAlign=top;html=1;shape=mxgraph.basic.x;fillColor=#e51400;strokeColor=#B20000;fontColor=#ffffff;" vertex="1" parent="1">
          <mxGeometry x="-708.5" y="505" width="35" height="35" as="geometry" />
        </mxCell>
        <mxCell id="rMzshPHU6KnUzgn7r8EB-66" value="OPENSEARCH" style="whiteSpace=wrap;html=1;fillColor=#f5f5f5;fontColor=#333333;strokeColor=#666666;" vertex="1" parent="1">
          <mxGeometry x="-580" y="500" width="120" height="35" as="geometry" />
        </mxCell>
        <mxCell id="rMzshPHU6KnUzgn7r8EB-68" value="SAMPLES" style="dashed=0;html=1;rounded=1;strokeColor=light-dark(#6554C0,#FF3333);fontSize=12;align=center;fontStyle=1;strokeWidth=2;fontColor=light-dark(#6554C0,#FF3333);rotation=-45;" vertex="1" parent="1">
          <mxGeometry x="-610" y="465" width="70" height="20" as="geometry" />
        </mxCell>
      </root>
    </mxGraphModel>
  </diagram>
</mxfile>
